# xmcd
#
# Track frame offsets: 
#        150
#        12584
#        23229
#        32561
#        46007
#        60234
#        74482
#        87120
#        105361
#        118280
#        130092
#        141947
#        152207
#        162333
#
# Disc length: 2413 seconds
#
# Revision: 0
# Processed by: cddbd v1.4PL0 Copyright (c) Steve Scherf et al.
# Submitted via: ExactAudioCopy v0.90b3
#
DISCID=b4096b0e
DTITLE=Johnny Paycheck - Forever Gold
DYEAR=2001
DGENRE=Country
TTITLE0=Take This Job And Shove It
TTITLE1=Juke Box Charlie
TTITLE2=Mr Love Maker
TTITLE3=Slide Off Your Satin Sheets
TTITLE4=The Only Hell My Mama Ever Raised
TTITLE5=Someone To Give My Love To
TTITLE6=Song And Dance Man
TTITLE7=Billy Jack Washburn
TTITLE8=Keep On Lovin' Me
TTITLE9=For A Minute There
TTITLE10=Something About You I Love
TTITLE11=Motel Time Again
TTITLE12=Lovin' You Beats All
TTITLE13=Memory Of A Memory
EXTD=
EXTT0=
EXTT1=
EXTT2=
EXTT3=
EXTT4=
EXTT5=
EXTT6=
EXTT7=
EXTT8=
EXTT9=
EXTT10=
EXTT11=
EXTT12=
EXTT13=
PLAYORDER=
